<svg width="129" height="36" viewBox="0 0 129 36" fill="none" xmlns="http://www.w3.org/2000/svg">
<path d="M33.5145 3.09124L28.5178 0.501488C25.5929 -1.02189 22.0891 1.11084 22.0891 4.40135V31.3652C22.0891 34.6557 25.5929 36.7884 28.5178 35.2651L33.5145 32.6753C34.9769 31.9136 35.891 30.4207 35.891 28.7755V6.9911C35.891 5.37631 34.9769 3.85293 33.5145 3.09124Z" fill="url(#paint0_linear_293_848)"/>
<path d="M4.29594 7.87466L2.28507 7.35671C1.1273 7.05204 0 7.9356 0 9.12384V26.6732C0 27.8614 1.1273 28.745 2.28507 28.4403L4.29594 27.9224C5.11856 27.7091 5.66698 26.9779 5.66698 26.1552V9.64179C5.66698 8.81916 5.0881 8.08794 4.29594 7.87466Z" fill="url(#paint1_linear_293_848)"/>
<path d="M14.7769 21.1281L12.2786 20.7625C10.938 20.5492 9.74976 21.5851 9.74976 22.9257V31.4566C9.74976 33.1019 11.4864 34.1682 12.9489 33.4065L15.4472 32.0964C16.1784 31.7308 16.6354 30.9691 16.6354 30.1465V23.2913C16.6354 22.2249 15.8433 21.3109 14.7769 21.1281Z" fill="url(#paint2_linear_293_848)"/>
<path d="M12.2481 15.065L14.7464 14.6994C15.8128 14.5471 16.6049 13.6026 16.6049 12.5362V5.68099C16.6049 4.85836 16.1479 4.09667 15.4167 3.73105L12.9183 2.42095C11.4559 1.65926 9.71924 2.72562 9.71924 4.37088V12.9018C9.71924 14.2424 10.9379 15.2478 12.2481 15.065Z" fill="url(#paint3_linear_293_848)"/>
<path d="M46.2195 24.5709C45.7015 24.5709 45.275 24.4186 45.0008 24.1443C44.7266 23.8701 44.5742 23.4436 44.5742 22.8952V12.8713C44.5742 11.7745 45.1226 11.1956 46.189 11.1956C46.707 11.1956 47.1335 11.3479 47.4077 11.6222C47.6819 11.8964 47.8343 12.3229 47.8343 12.8713V16.436C48.4741 15.5525 49.449 15.0955 50.6677 15.0955C51.7646 15.0955 52.5567 15.4306 53.0747 16.0704C53.5926 16.7102 53.8668 17.6852 53.8668 19.0258V22.8952C53.8668 23.4436 53.7145 23.8397 53.4403 24.1443C53.1661 24.4186 52.7395 24.5709 52.2216 24.5709C51.7036 24.5709 51.2771 24.4186 51.0029 24.1443C50.7287 23.8701 50.5763 23.4436 50.5763 22.8952V19.1477C50.5763 18.5992 50.4849 18.2032 50.3021 17.9594C50.1193 17.7157 49.8451 17.5938 49.449 17.5938C48.9616 17.5938 48.5655 17.7461 48.2608 18.0508C47.9561 18.3555 47.8038 18.782 47.8038 19.3305V22.8647C47.8952 24.0225 47.3468 24.5709 46.2195 24.5709Z" fill="url(#paint4_linear_293_848)"/>
<path d="M58.9551 24.6014C58.2543 24.6014 57.645 24.4795 57.0966 24.2053C56.5481 23.9311 56.1521 23.596 55.8474 23.1389C55.5427 22.6819 55.3904 22.164 55.3904 21.5851C55.3904 20.9453 55.5732 20.3969 55.9083 20.0312C56.2435 19.6352 56.8224 19.361 57.584 19.2086C58.3457 19.0563 59.3512 18.9649 60.6308 18.9649H61.3316V18.7211C61.3316 18.2641 61.2097 17.9594 60.9964 17.7766C60.7832 17.5938 60.3871 17.5024 59.8082 17.5024C59.5035 17.5024 59.1684 17.5329 58.8028 17.5938C58.4371 17.6548 58.0411 17.7766 57.584 17.9595C57.188 18.1118 56.8528 18.1118 56.5786 17.929C56.3044 17.7766 56.1216 17.5329 56.0607 17.2282C55.9693 16.9235 55.9997 16.6189 56.1521 16.3142C56.3044 16.0095 56.5786 15.7962 56.9747 15.6439C57.5536 15.4306 58.102 15.2783 58.6199 15.2174C59.1379 15.1564 59.5644 15.0955 59.991 15.0955C61.5144 15.0955 62.6417 15.4306 63.3729 16.0705C64.1041 16.7103 64.4697 17.7462 64.4697 19.1477V22.8952C64.4697 23.992 63.9518 24.5709 62.9464 24.5709C61.9714 24.5709 61.4839 24.0834 61.423 23.078C61.2402 23.535 60.966 23.9311 60.5394 24.1748C60.0824 24.4795 59.5644 24.6014 58.9551 24.6014ZM59.6863 22.4687C60.1433 22.4687 60.5394 22.3163 60.8441 22.0116C61.1488 21.707 61.3011 21.3414 61.3011 20.8539V20.5187H60.6308C59.8996 20.5187 59.3816 20.6101 59.0465 20.7625C58.7114 20.9148 58.5285 21.1586 58.5285 21.4937C58.5285 21.7679 58.62 22.0116 58.8332 22.1945C59.016 22.3773 59.3207 22.4687 59.6863 22.4687Z" fill="url(#paint5_linear_293_848)"/>
<path d="M67.9733 24.5709C66.846 24.5709 66.2976 24.0225 66.2976 22.8952V16.7712C66.2976 15.6744 66.846 15.126 67.9124 15.126C68.4303 15.126 68.796 15.2783 69.1006 15.5525C69.3748 15.8267 69.5272 16.2533 69.5272 16.7712V16.8321C69.7404 16.3142 70.0756 15.8877 70.5326 15.583C70.9896 15.2783 71.5685 15.126 72.2083 15.0955C72.5739 15.0955 72.8481 15.1869 73.0005 15.3697C73.1833 15.5525 73.2747 15.9181 73.2747 16.4361C73.2747 16.8931 73.1833 17.2282 73.0005 17.5024C72.8177 17.7462 72.4521 17.929 71.9341 17.9595L71.5076 17.9899C70.8678 18.0509 70.3803 18.2337 70.0756 18.5383C69.7709 18.843 69.6186 19.3 69.6186 19.8789V22.8952C69.649 24.0225 69.0702 24.5709 67.9733 24.5709Z" fill="url(#paint6_linear_293_848)"/>
<path d="M78.881 24.5709C78.0279 24.5709 77.4185 24.1444 77.0225 23.2913L74.3718 17.2587C74.128 16.7103 74.128 16.2228 74.3718 15.7962C74.6155 15.3697 75.0725 15.1564 75.8037 15.1564C76.1998 15.1564 76.5045 15.2478 76.7482 15.4306C76.992 15.6134 77.2053 15.9486 77.4185 16.4665L78.9724 20.4883L80.6176 16.4665C80.8004 15.9486 81.0442 15.6134 81.2879 15.4306C81.5317 15.2478 81.8668 15.1564 82.2934 15.1564C82.659 15.1564 82.9332 15.2478 83.1769 15.4306C83.3902 15.6134 83.5425 15.8876 83.6035 16.1923C83.6644 16.5275 83.6035 16.8626 83.4207 17.2282L80.709 23.2913C80.3739 24.1444 79.7645 24.5709 78.881 24.5709Z" fill="url(#paint7_linear_293_848)"/>
<path d="M89.6055 24.6014C88.5086 24.6014 87.5337 24.4186 86.7415 24.0225C85.9494 23.6264 85.3095 23.078 84.883 22.3773C84.4564 21.6765 84.2432 20.8234 84.2432 19.8484C84.2432 18.9344 84.4564 18.1118 84.8525 17.3806C85.2791 16.6798 85.8275 16.1009 86.5587 15.7048C87.2899 15.3088 88.1126 15.0955 89.0266 15.0955C89.9406 15.0955 90.7328 15.2783 91.4031 15.6744C92.0733 16.0705 92.5913 16.5884 92.9569 17.3196C93.3225 18.0204 93.5053 18.843 93.5053 19.818C93.5053 20.3055 93.2311 20.5492 92.6522 20.5492H87.3813C87.5032 21.1281 87.7469 21.5546 88.1126 21.8288C88.5086 22.0726 89.0266 22.2249 89.6969 22.2249C89.9406 22.2249 90.2758 22.1944 90.6109 22.1335C90.9765 22.0726 91.3117 21.9812 91.6163 21.8288C92.0124 21.6765 92.3476 21.6765 92.6218 21.8288C92.896 21.9812 93.0788 22.1944 93.1702 22.4687C93.2616 22.7733 93.2616 23.0475 93.1397 23.3522C93.0178 23.6569 92.8046 23.9006 92.439 24.053C92.0124 24.2663 91.5554 24.4186 91.0679 24.51C90.5804 24.5709 90.093 24.6014 89.6055 24.6014ZM89.1485 17.2282C88.661 17.2282 88.2649 17.3806 87.9298 17.6852C87.6251 17.9899 87.4118 18.4165 87.3204 18.9649H90.7632C90.7328 18.386 90.5804 17.9595 90.3062 17.6548C90.032 17.3806 89.6359 17.2282 89.1485 17.2282Z" fill="url(#paint8_linear_293_848)"/>
<path d="M98.502 24.6014C97.9535 24.6014 97.4051 24.5709 96.8262 24.4795C96.2474 24.3881 95.7599 24.2662 95.3029 24.053C94.9068 23.9006 94.663 23.6874 94.5412 23.4131C94.4193 23.1389 94.4193 22.8343 94.5107 22.5601C94.6021 22.2859 94.7849 22.0726 95.0287 21.9202C95.2724 21.7679 95.5771 21.7679 95.9122 21.8898C96.4302 22.0726 96.8872 22.1944 97.2833 22.2858C97.7098 22.3772 98.1059 22.4077 98.4715 22.4077C98.9285 22.4077 99.2637 22.3468 99.4465 22.2249C99.6293 22.103 99.7511 21.9202 99.7511 21.707C99.7511 21.5242 99.6902 21.3718 99.5683 21.2804C99.4465 21.189 99.2637 21.1281 99.0199 21.0671L96.9786 20.732C96.2169 20.6101 95.638 20.3359 95.2115 19.9094C94.7849 19.4828 94.5716 18.9039 94.5716 18.2337C94.5716 17.5938 94.7545 17.0454 95.1201 16.5884C95.4857 16.1314 95.9732 15.7658 96.613 15.522C97.2528 15.2783 97.984 15.1564 98.8066 15.1564C99.3551 15.1564 99.873 15.1869 100.33 15.2783C100.787 15.3697 101.244 15.4916 101.671 15.7048C102.006 15.8267 102.219 16.04 102.31 16.3447C102.402 16.6189 102.402 16.8931 102.28 17.1978C102.158 17.5024 102.006 17.6852 101.732 17.8376C101.488 17.9899 101.183 17.9899 100.818 17.8376C100.421 17.6852 100.056 17.5634 99.7511 17.472C99.4465 17.411 99.1418 17.3501 98.8676 17.3501C98.3496 17.3501 98.0145 17.411 97.8012 17.5634C97.5879 17.7157 97.4965 17.868 97.4965 18.0813C97.4965 18.4165 97.7098 18.6297 98.1668 18.6907L100.208 19.0563C101 19.1781 101.61 19.4524 102.036 19.8484C102.463 20.275 102.676 20.8234 102.676 21.5242C102.676 22.5296 102.28 23.2913 101.518 23.8397C100.787 24.3272 99.7816 24.6014 98.502 24.6014Z" fill="url(#paint9_linear_293_848)"/>
<path d="M108.739 24.6014C107.368 24.6014 106.332 24.2663 105.662 23.6264C104.991 22.9866 104.656 22.0116 104.656 20.732V17.7157H104.017C103.194 17.7157 102.767 17.3196 102.767 16.497C102.767 15.7048 103.194 15.3088 104.017 15.3088H104.656V14.151C104.656 13.6026 104.809 13.2065 105.083 12.9018C105.357 12.6276 105.784 12.4753 106.302 12.4753C107.398 12.4753 107.947 13.0237 107.947 14.151V15.3088H109.47C110.293 15.3088 110.719 15.7048 110.719 16.497C110.719 17.3196 110.293 17.7157 109.47 17.7157H107.947V20.6101C107.947 21.4937 108.404 21.9507 109.287 21.9507C109.47 21.9507 109.623 21.9202 109.775 21.8898C109.927 21.8593 110.08 21.8288 110.232 21.8288C110.415 21.8288 110.598 21.8898 110.719 22.0116C110.841 22.1335 110.902 22.4382 110.902 22.8952C110.902 23.2608 110.841 23.5655 110.75 23.8397C110.628 24.0834 110.445 24.2663 110.171 24.3881C109.988 24.4491 109.775 24.51 109.47 24.5405C109.166 24.6014 108.922 24.6014 108.739 24.6014Z" fill="url(#paint10_linear_293_848)"/>
<path d="M116.691 24.6014C115.594 24.6014 114.619 24.4186 113.827 24.0225C113.035 23.6264 112.395 23.078 111.969 22.3773C111.542 21.6765 111.329 20.8234 111.329 19.8484C111.329 18.9344 111.542 18.1118 111.938 17.3806C112.365 16.6798 112.913 16.1009 113.644 15.7048C114.376 15.3088 115.198 15.0955 116.112 15.0955C117.026 15.0955 117.818 15.2783 118.489 15.6744C119.159 16.0705 119.677 16.5884 120.043 17.3196C120.408 18.0204 120.591 18.843 120.591 19.818C120.591 20.3055 120.317 20.5492 119.738 20.5492H114.467C114.589 21.1281 114.833 21.5546 115.198 21.8288C115.594 22.0726 116.112 22.2249 116.783 22.2249C117.026 22.2249 117.361 22.1944 117.697 22.1335C118.062 22.0726 118.397 21.9812 118.702 21.8288C119.098 21.6765 119.433 21.6765 119.707 21.8288C119.982 21.9812 120.164 22.1944 120.256 22.4687C120.347 22.7733 120.347 23.0475 120.225 23.3522C120.104 23.6569 119.89 23.9006 119.525 24.053C119.098 24.2663 118.641 24.4186 118.154 24.51C117.697 24.5709 117.179 24.6014 116.691 24.6014ZM116.265 17.2282C115.777 17.2282 115.381 17.3806 115.046 17.6852C114.741 17.9899 114.528 18.4165 114.437 18.9649H117.879C117.849 18.386 117.697 17.9595 117.422 17.6548C117.148 17.3806 116.752 17.2282 116.265 17.2282Z" fill="url(#paint11_linear_293_848)"/>
<path d="M123.699 24.5709C122.571 24.5709 122.023 24.0225 122.023 22.8952V16.7712C122.023 15.6744 122.571 15.126 123.638 15.126C124.156 15.126 124.521 15.2783 124.826 15.5525C125.1 15.8267 125.253 16.2533 125.253 16.7712V16.8321C125.466 16.3142 125.801 15.8877 126.258 15.583C126.715 15.2783 127.294 15.126 127.934 15.0955C128.299 15.0955 128.573 15.1869 128.726 15.3697C128.909 15.5525 129 15.9181 129 16.4361C129 16.8931 128.909 17.2282 128.726 17.5024C128.543 17.7462 128.177 17.929 127.659 17.9595L127.233 17.9899C126.593 18.0509 126.106 18.2337 125.801 18.5383C125.496 18.843 125.344 19.3 125.344 19.8789V22.8952C125.344 24.0225 124.796 24.5709 123.699 24.5709Z" fill="url(#paint12_linear_293_848)"/>
<defs>
<linearGradient id="paint0_linear_293_848" x1="-20.5511" y1="31.0337" x2="123.053" y2="-9.0228" gradientUnits="userSpaceOnUse">
<stop stop-color="#009380"/>
<stop offset="1" stop-color="#004993"/>
</linearGradient>
<linearGradient id="paint1_linear_293_848" x1="-22.3259" y1="24.6711" x2="121.278" y2="-15.3853" gradientUnits="userSpaceOnUse">
<stop stop-color="#009380"/>
<stop offset="1" stop-color="#004993"/>
</linearGradient>
<linearGradient id="paint2_linear_293_848" x1="-19.1992" y1="35.8801" x2="124.405" y2="-4.17643" gradientUnits="userSpaceOnUse">
<stop stop-color="#009380"/>
<stop offset="1" stop-color="#004993"/>
</linearGradient>
<linearGradient id="paint3_linear_293_848" x1="-23.9625" y1="18.8037" x2="119.641" y2="-21.2527" gradientUnits="userSpaceOnUse">
<stop stop-color="#009380"/>
<stop offset="1" stop-color="#004993"/>
</linearGradient>
<linearGradient id="paint4_linear_293_848" x1="-18.9127" y1="36.9073" x2="124.691" y2="-3.14918" gradientUnits="userSpaceOnUse">
<stop stop-color="#009380"/>
<stop offset="1" stop-color="#004993"/>
</linearGradient>
<linearGradient id="paint5_linear_293_848" x1="-17.558" y1="41.7635" x2="126.046" y2="1.70706" gradientUnits="userSpaceOnUse">
<stop stop-color="#009380"/>
<stop offset="1" stop-color="#004993"/>
</linearGradient>
<linearGradient id="paint6_linear_293_848" x1="-17.0535" y1="43.5725" x2="126.55" y2="3.51599" gradientUnits="userSpaceOnUse">
<stop stop-color="#009380"/>
<stop offset="1" stop-color="#004993"/>
</linearGradient>
<linearGradient id="paint7_linear_293_848" x1="-16.3762" y1="45.9997" x2="127.227" y2="5.94327" gradientUnits="userSpaceOnUse">
<stop stop-color="#009380"/>
<stop offset="1" stop-color="#004993"/>
</linearGradient>
<linearGradient id="paint8_linear_293_848" x1="-15.5025" y1="49.1328" x2="128.101" y2="9.07637" gradientUnits="userSpaceOnUse">
<stop stop-color="#009380"/>
<stop offset="1" stop-color="#004993"/>
</linearGradient>
<linearGradient id="paint9_linear_293_848" x1="-14.8331" y1="51.5327" x2="128.771" y2="11.4763" gradientUnits="userSpaceOnUse">
<stop stop-color="#009380"/>
<stop offset="1" stop-color="#004993"/>
</linearGradient>
<linearGradient id="paint10_linear_293_848" x1="-14.5222" y1="52.6477" x2="129.082" y2="12.5912" gradientUnits="userSpaceOnUse">
<stop stop-color="#009380"/>
<stop offset="1" stop-color="#004993"/>
</linearGradient>
<linearGradient id="paint11_linear_293_848" x1="-13.5456" y1="56.1484" x2="130.058" y2="16.0919" gradientUnits="userSpaceOnUse">
<stop stop-color="#009380"/>
<stop offset="1" stop-color="#004993"/>
</linearGradient>
<linearGradient id="paint12_linear_293_848" x1="-13.0317" y1="57.9908" x2="130.572" y2="17.9343" gradientUnits="userSpaceOnUse">
<stop stop-color="#009380"/>
<stop offset="1" stop-color="#004993"/>
</linearGradient>
</defs>
</svg>
